<svg width="122" height="61" viewBox="0 0 122 61" fill="none" xmlns="http://www.w3.org/2000/svg">
<path d="M9.73988 41.6043C19.5871 49.1668 39.2277 52.7462 66.5175 49.0385C102.864 44.1003 126.287 26.5034 116.634 12.0471C109.185 0.891342 80.3259 1.21576 54.9263 6.37285M9.73988 41.6043C6.47174 39.0945 4.2823 36.1459 3.24994 32.8794C-0.177847 22.0333 16.5911 7.12674 54.9263 6.37285M9.73988 41.6043C4.88447 31.3446 13.365 19.2691 33.9346 12.0471C40.1996 9.84744 47.4115 7.89863 54.9263 6.37285M9.73988 41.6043C11.3618 45.0315 14.4716 48.256 19.116 51.0294C32.8893 59.2541 65.4629 60.9749 94.2567 51.4797M54.9263 6.37285C62.9242 6.21557 71.8608 6.67431 81.7486 7.91446" stroke="#AA80FF" stroke-width="5"/>
</svg>
