<svg width="138" height="120" viewBox="0 0 138 120" fill="none" xmlns="http://www.w3.org/2000/svg">
<path d="M24.0942 8.3399C0.0115033 18.892 45.2801 59.5895 45.2801 59.5895C45.2801 59.5895 14.9486 45.9442 6.98112 61.9555C0.810869 74.3551 28.8337 87.9045 46.6343 95.0593C46.6343 95.0593 36.0557 103.931 41.1888 110.801C50.8696 123.757 140.207 89.5174 130.692 72.89C126.208 65.054 110.682 70.2566 110.682 70.2566C108.876 46.74 100.038 5.81954 73.1455 20.1176C64.4542 13.1143 55.6926 15.7988 51.4727 19.3489C43.5876 10.3578 33.9838 4.0067 24.0942 8.3399Z" fill="black"/>
<path d="M70.5657 50.5945C70.5657 50.5945 62.7893 32.2528 51.4727 19.3489M87.3429 43.9377C83.2408 31.5544 78.205 24.1945 73.1455 20.1176M111.097 80.1433C111.101 77.5538 110.981 74.1477 110.682 70.2566M61.124 100.491C61.124 100.491 54.528 98.2322 46.6343 95.0593M80.0833 59.0708C84.5316 63.9427 86.8768 70.4484 87.8331 75.0278M60.5617 66.3507C65.1063 70.8561 67.633 75.3847 70.3736 80.4919M46.6343 95.0593C28.8337 87.9045 0.810869 74.3551 6.98112 61.9555C14.9486 45.9442 45.2801 59.5895 45.2801 59.5895C45.2801 59.5895 0.0115033 18.892 24.0942 8.3399C33.9838 4.0067 43.5876 10.3578 51.4727 19.3489M46.6343 95.0593C46.6343 95.0593 36.0557 103.931 41.1888 110.801C50.8696 123.757 140.207 89.5174 130.692 72.89C126.208 65.054 110.682 70.2566 110.682 70.2566M110.682 70.2566C108.876 46.74 100.038 5.81954 73.1455 20.1176M73.1455 20.1176C64.4542 13.1143 55.6926 15.7988 51.4727 19.3489" stroke="white" stroke-width="12"/>
</svg>
